
<svg xmlns="http://www.w3.org/2000/svg" style="display: none;">
<!-- Logo -->
<symbol id="logo">
<g fill="#ffffff" fill-rule="nonzero" stroke="none" stroke-width="1" stroke-linecap="butt" stroke-linejoin="miter" stroke-miterlimit="10" stroke-dasharray="" stroke-dashoffset="0" font-family="none" font-weight="none" font-size="none" text-anchor="none" style="mix-blend-mode: normal"><g transform="translate(-0.07092,0.15277) scale(0.71111,0.71111)"><g transform="translate(0,360) scale(0.1,-0.1)"><path d="M1565,3589c-41,-11 -109,-71 -128,-111c-8,-18 -25,-89 -37,-158c-12,-69 -25,-134 -29,-145c-5,-12 -29,-28 -62,-39c-30,-11 -80,-32 -111,-48c-32,-15 -62,-28 -67,-28c-5,0 -62,38 -128,85c-131,93 -177,111 -252,94c-69,-15 -89,-30 -233,-176c-139,-141 -160,-170 -172,-235c-11,-61 11,-116 96,-238c44,-63 83,-120 85,-127c3,-6 -11,-47 -30,-90c-19,-43 -40,-95 -47,-116c-7,-21 -17,-40 -24,-43c-6,-2 -73,-15 -149,-28c-160,-28 -200,-48 -244,-123c-28,-48 -28,-49 -31,-249c-4,-229 2,-267 54,-324c48,-53 86,-68 240,-94c74,-13 137,-26 141,-30c4,-4 22,-44 41,-89c18,-45 40,-98 49,-118l15,-36l-75,-104c-98,-137 -107,-156 -107,-226c1,-89 22,-123 181,-279c154,-152 181,-168 271,-166c57,1 94,20 222,111c55,39 104,71 109,71c5,0 43,-15 85,-34c43,-18 94,-39 115,-45c20,-7 37,-16 37,-20c0,-3 11,-68 24,-144c29,-163 53,-212 124,-254l47,-28h225c248,0 258,2 320,66c39,41 55,90 80,239c12,68 22,125 23,126c1,1 40,17 87,36c47,19 101,42 121,51l36,16l118,-85c220,-157 270,-148 501,87c146,150 165,180 164,260c-1,56 -23,101 -101,210c-41,57 -78,109 -82,116c-4,7 5,38 21,70c16,32 40,86 52,121c12,34 23,62 24,62c0,0 65,11 142,24c148,25 186,39 229,81c57,57 60,73 63,305l3,215l-28,55c-43,82 -88,106 -259,136c-76,13 -142,24 -145,24c-4,0 -15,23 -25,52c-9,28 -31,84 -49,123l-33,71l75,104c93,129 113,171 113,235c0,81 -26,118 -186,276c-154,152 -180,169 -260,169c-53,0 -95,-20 -217,-105l-118,-83l-107,45c-59,24 -117,48 -128,53c-18,7 -24,22 -34,82c-38,241 -57,284 -149,331c-54,27 -55,27 -255,26c-111,0 -215,-5 -231,-10zM1966,3389c4,-6 19,-85 34,-174c15,-89 33,-172 39,-183c15,-27 26,-33 138,-71c51,-16 133,-51 182,-76c50,-25 104,-45 120,-45c21,0 70,30 176,105c125,89 150,103 163,93c21,-17 203,-200 220,-220c11,-14 1,-33 -71,-135c-108,-151 -127,-183 -127,-210c0,-13 22,-67 49,-120c27,-54 61,-136 76,-183c41,-128 42,-128 252,-164l178,-31v-175v-174l-177,-31c-211,-37 -214,-39 -252,-158c-14,-45 -48,-129 -76,-187c-39,-79 -51,-113 -47,-135c3,-17 51,-95 106,-175l102,-144l-124,-124l-124,-124l-142,102c-83,59 -156,104 -175,107c-25,4 -54,-6 -131,-45c-55,-28 -139,-62 -187,-77c-125,-39 -126,-41 -163,-253l-30,-177h-175h-175l-11,65c-6,36 -20,114 -30,174c-23,139 -35,154 -146,189c-46,15 -125,47 -176,72c-136,66 -139,65 -307,-55c-77,-55 -145,-100 -152,-100c-14,0 -243,226 -243,239c0,5 41,66 91,137c135,189 132,172 64,313c-30,65 -68,155 -83,201c-22,69 -32,87 -57,102c-16,9 -102,29 -190,44c-88,15 -166,32 -173,37c-17,14 -17,336 1,342c6,3 88,18 181,34c142,25 172,33 191,53c12,13 37,68 54,122c18,55 53,140 77,189c35,69 44,95 39,118c-4,16 -51,92 -106,169c-54,76 -99,143 -99,147c0,10 232,243 243,243c4,0 71,-45 148,-100c168,-119 174,-120 293,-58c45,23 128,58 185,77c74,26 109,43 123,61c13,17 27,76 44,180c14,85 29,165 34,178c9,22 13,22 174,22c111,0 167,-4 172,-11z"></path><path d="M1694,2570c-313,-43 -576,-285 -650,-598c-21,-87 -21,-256 0,-344c69,-291 293,-515 584,-584c88,-21 257,-21 344,0c322,76 558,340 599,667c19,154 -21,346 -98,478c-70,119 -209,249 -330,310c-114,57 -316,89 -449,71zM1944,2354c197,-51 359,-214 411,-414c22,-85 17,-241 -11,-321c-59,-168 -192,-301 -360,-360c-74,-27 -212,-36 -296,-20c-211,41 -404,230 -447,439c-61,297 114,588 404,673c77,23 218,24 299,3z"></path></g></g></g>
</symbol>

<!-- Social -->
<!-- Mail -->
<symbol id='mail'>
<path fill="#1e88e5" d="M34,42H14c-4.411,0-8-3.589-8-8V14c0-4.411,3.589-8,8-8h20c4.411,0,8,3.589,8,8v20 C42,38.411,38.411,42,34,42z"/><path fill="#fff" d="M35.926,17.488L29.414,24l6.511,6.511C35.969,30.347,36,30.178,36,30V18 C36,17.822,35.969,17.653,35.926,17.488z M26.688,23.899l7.824-7.825C34.347,16.031,34.178,16,34,16H14 c-0.178,0-0.347,0.031-0.512,0.074l7.824,7.825C22.795,25.38,25.205,25.38,26.688,23.899z M24,27.009 c-1.44,0-2.873-0.542-3.99-1.605l-6.522,6.522C13.653,31.969,13.822,32,14,32h20c0.178,0,0.347-0.031,0.512-0.074l-6.522-6.522 C26.873,26.467,25.44,27.009,24,27.009z M12.074,17.488C12.031,17.653,12,17.822,12,18v12c0,0.178,0.031,0.347,0.074,0.512 L18.586,24L12.074,17.488z"/>
</symbol>

<!-- Telegram -->
<symbol id='telegram' viewBox="0 0 48 48">
<path fill="#29b6f6" d="M24 4A20 20 0 1 0 24 44A20 20 0 1 0 24 4Z"/><path fill="#fff" d="M33.95,15l-3.746,19.126c0,0-0.161,0.874-1.245,0.874c-0.576,0-0.873-0.274-0.873-0.274l-8.114-6.733 l-3.97-2.001l-5.095-1.355c0,0-0.907-0.262-0.907-1.012c0-0.625,0.933-0.923,0.933-0.923l21.316-8.468 c-0.001-0.001,0.651-0.235,1.126-0.234C33.667,14,34,14.125,34,14.5C34,14.75,33.95,15,33.95,15z"/><path fill="#b0bec5" d="M23,30.505l-3.426,3.374c0,0-0.149,0.115-0.348,0.12c-0.069,0.002-0.143-0.009-0.219-0.043 l0.964-5.965L23,30.505z"/><path fill="#cfd8dc" d="M29.897,18.196c-0.169-0.22-0.481-0.26-0.701-0.093L16,26c0,0,2.106,5.892,2.427,6.912 c0.322,1.021,0.58,1.045,0.58,1.045l0.964-5.965l9.832-9.096C30.023,18.729,30.064,18.416,29.897,18.196z"/>
</symbol>

<!-- WhatsApp -->
<symbol id='whatsapp'>
<path fill="#fff" d="M4.868,43.303l2.694-9.835C5.9,30.59,5.026,27.324,5.027,23.979C5.032,13.514,13.548,5,24.014,5c5.079,0.002,9.845,1.979,13.43,5.566c3.584,3.588,5.558,8.356,5.556,13.428c-0.004,10.465-8.522,18.98-18.986,18.98c-0.001,0,0,0,0,0h-0.008c-3.177-0.001-6.3-0.798-9.073-2.311L4.868,43.303z"/><path fill="#fff" d="M4.868,43.803c-0.132,0-0.26-0.052-0.355-0.148c-0.125-0.127-0.174-0.312-0.127-0.483l2.639-9.636c-1.636-2.906-2.499-6.206-2.497-9.556C4.532,13.238,13.273,4.5,24.014,4.5c5.21,0.002,10.105,2.031,13.784,5.713c3.679,3.683,5.704,8.577,5.702,13.781c-0.004,10.741-8.746,19.48-19.486,19.48c-3.189-0.001-6.344-0.788-9.144-2.277l-9.875,2.589C4.953,43.798,4.911,43.803,4.868,43.803z"/><path fill="#cfd8dc" d="M24.014,5c5.079,0.002,9.845,1.979,13.43,5.566c3.584,3.588,5.558,8.356,5.556,13.428c-0.004,10.465-8.522,18.98-18.986,18.98h-0.008c-3.177-0.001-6.3-0.798-9.073-2.311L4.868,43.303l2.694-9.835C5.9,30.59,5.026,27.324,5.027,23.979C5.032,13.514,13.548,5,24.014,5 M24.014,42.974C24.014,42.974,24.014,42.974,24.014,42.974C24.014,42.974,24.014,42.974,24.014,42.974 M24.014,42.974C24.014,42.974,24.014,42.974,24.014,42.974C24.014,42.974,24.014,42.974,24.014,42.974 M24.014,4C24.014,4,24.014,4,24.014,4C12.998,4,4.032,12.962,4.027,23.979c-0.001,3.367,0.849,6.685,2.461,9.622l-2.585,9.439c-0.094,0.345,0.002,0.713,0.254,0.967c0.19,0.192,0.447,0.297,0.711,0.297c0.085,0,0.17-0.011,0.254-0.033l9.687-2.54c2.828,1.468,5.998,2.243,9.197,2.244c11.024,0,19.99-8.963,19.995-19.98c0.002-5.339-2.075-10.359-5.848-14.135C34.378,6.083,29.357,4.002,24.014,4L24.014,4z"/><path fill="#40c351" d="M35.176,12.832c-2.98-2.982-6.941-4.625-11.157-4.626c-8.704,0-15.783,7.076-15.787,15.774c-0.001,2.981,0.833,5.883,2.413,8.396l0.376,0.597l-1.595,5.821l5.973-1.566l0.577,0.342c2.422,1.438,5.2,2.198,8.032,2.199h0.006c8.698,0,15.777-7.077,15.78-15.776C39.795,19.778,38.156,15.814,35.176,12.832z"/><path fill="#fff" fill-rule="evenodd" d="M19.268,16.045c-0.355-0.79-0.729-0.806-1.068-0.82c-0.277-0.012-0.593-0.011-0.909-0.011c-0.316,0-0.83,0.119-1.265,0.594c-0.435,0.475-1.661,1.622-1.661,3.956c0,2.334,1.7,4.59,1.937,4.906c0.237,0.316,3.282,5.259,8.104,7.161c4.007,1.58,4.823,1.266,5.693,1.187c0.87-0.079,2.807-1.147,3.202-2.255c0.395-1.108,0.395-2.057,0.277-2.255c-0.119-0.198-0.435-0.316-0.909-0.554s-2.807-1.385-3.242-1.543c-0.435-0.158-0.751-0.237-1.068,0.238c-0.316,0.474-1.225,1.543-1.502,1.859c-0.277,0.317-0.554,0.357-1.028,0.119c-0.474-0.238-2.002-0.738-3.815-2.354c-1.41-1.257-2.362-2.81-2.639-3.285c-0.277-0.474-0.03-0.731,0.208-0.968c0.213-0.213,0.474-0.554,0.712-0.831c0.237-0.277,0.316-0.475,0.474-0.791c0.158-0.317,0.079-0.594-0.04-0.831C20.612,19.329,19.69,16.983,19.268,16.045z" clip-rule="evenodd"/>
</symbol>

<!-- Stages -->
<!-- Calendar -->
<symbol id='calendar'>
<g transform="translate(0.000000,512.000000) scale(0.100000,-0.100000)"
stroke="none">
<path d="M1183 4696 l-28 -24 -3 -171 -3 -171 -174 0 c-96 0 -198 -5 -227 -11
-115 -25 -227 -103 -285 -200 -67 -112 -63 -9 -63 -1759 0 -1032 4 -1600 11
-1629 38 -166 184 -303 354 -331 80 -13 3428 -13 3508 0 122 20 232 91 297
192 76 117 71 -7 68 1793 l-3 1610 -24 58 c-44 112 -143 207 -258 250 -51 18
-84 22 -260 25 l-202 4 -3 170 -3 170 -28 24 c-27 23 -33 24 -203 24 -107 0
-183 -4 -196 -11 -38 -20 -48 -68 -48 -229 l0 -150 -140 0 -140 0 0 170 c0
233 13 220 -230 220 l-182 0 -29 -29 -29 -29 0 -166 0 -166 -140 0 -140 0 0
160 c0 170 -6 201 -47 219 -14 7 -89 11 -189 11 -171 0 -214 -8 -228 -45 -3
-9 -6 -91 -6 -181 l0 -164 -139 0 -140 0 -3 171 -3 171 -28 24 c-27 23 -32 24
-207 24 -175 0 -180 -1 -207 -24z m267 -491 l0 -345 -60 0 -60 0 0 345 0 345
60 0 60 0 0 -345z m760 0 l0 -345 -65 0 -65 0 0 345 0 345 65 0 65 0 0 -345z
m750 0 l0 -345 -65 0 -65 0 0 338 c0 186 3 342 7 345 3 4 33 7 65 7 l58 0 0
-345z m758 -2 l2 -343 -65 0 -65 0 0 345 0 346 63 -3 62 -3 3 -342z m-2566
-252 c3 -206 3 -210 27 -235 l24 -26 183 0 c100 0 190 3 199 6 38 15 45 55 45
264 l0 201 138 -3 137 -3 5 -211 c4 -190 7 -214 24 -233 18 -20 29 -21 206
-21 255 0 234 -22 240 252 l5 213 137 3 137 3 3 -217 c4 -277 -17 -254 237
-254 249 0 230 -21 233 255 l3 210 137 3 137 3 3 -210 c3 -206 3 -210 27 -235
l24 -26 183 0 c100 0 190 3 199 6 38 15 45 55 45 265 l0 201 188 -3 c187 -4
189 -4 248 -34 64 -33 115 -95 134 -163 5 -20 10 -139 10 -264 l0 -228 -1951
0 -1951 0 4 248 c3 232 4 249 25 288 26 49 74 99 115 120 48 25 104 32 275 33
l162 1 3 -209z m3316 -1928 l-3 -1268 -22 -41 c-29 -55 -78 -103 -128 -125
-38 -18 -117 -19 -1784 -19 -1351 0 -1753 3 -1785 12 -25 8 -61 32 -93 63 -89
87 -83 -16 -83 1402 l0 1243 1950 0 1950 0 -2 -1267z"/>
<path d="M805 3125 l-25 -24 0 -271 0 -271 25 -24 24 -25 295 0 295 0 28 24
28 24 0 272 0 272 -28 24 -28 24 -295 0 -295 0 -24 -25z m495 -295 l0 -150
-175 0 -175 0 0 150 0 150 175 0 175 0 0 -150z"/>
<path d="M1719 3137 c-36 -28 -39 -52 -39 -312 l0 -257 29 -29 29 -29 286 0
c188 0 293 4 309 11 43 20 47 44 47 320 l0 260 -25 24 -24 25 -298 0 c-218 -1
-302 -4 -314 -13z m491 -307 l0 -150 -180 0 -180 0 0 150 0 150 180 0 180 0 0
-150z"/>
<path d="M2615 3125 l-25 -24 0 -271 0 -271 25 -24 24 -25 296 0 296 0 24 24
c13 13 27 39 30 58 4 18 5 141 3 272 l-3 238 -28 24 -28 24 -295 0 -295 0 -24
-25z m495 -295 l0 -150 -175 0 -175 0 0 150 0 150 175 0 175 0 0 -150z"/>
<path d="M3532 3143 c-7 -3 -19 -18 -27 -33 -12 -23 -15 -79 -15 -285 l0 -257
29 -29 29 -29 292 0 292 0 29 29 29 29 0 257 c0 260 -3 284 -39 312 -12 9 -94
12 -311 12 -162 0 -301 -3 -308 -6z m488 -313 l0 -150 -180 0 -180 0 0 150 0
150 180 0 180 0 0 -150z"/>
<path d="M825 2358 c-43 -25 -44 -32 -45 -311 l0 -268 25 -24 24 -25 299 0
299 0 24 26 24 26 0 269 c0 266 0 269 -23 291 -22 23 -26 23 -315 25 -209 2
-298 0 -312 -9z m475 -308 l0 -150 -175 0 -175 0 0 150 0 150 175 0 175 0 0
-150z"/>
<path d="M1709 2341 l-29 -29 0 -257 c0 -267 5 -303 45 -319 9 -3 149 -6 311
-6 l295 0 24 25 25 24 0 266 0 267 -29 29 -29 29 -292 0 -292 0 -29 -29z m501
-291 l0 -150 -180 0 -180 0 0 143 c0 79 3 147 7 150 3 4 84 7 180 7 l173 0 0
-150z"/>
<path d="M2635 2358 c-44 -24 -45 -29 -45 -313 0 -271 0 -272 23 -293 23 -22
29 -22 323 -22 l301 0 24 26 c24 25 24 27 27 274 4 274 -2 311 -53 330 -37 14
-574 13 -600 -2z m475 -308 l0 -150 -175 0 -175 0 0 150 0 150 175 0 175 0 0
-150z"/>
<path d="M3519 2341 l-29 -29 0 -267 0 -266 25 -24 24 -25 299 0 c280 0 301 1
323 19 l24 19 3 271 3 272 -30 29 -29 30 -292 0 -292 0 -29 -29z m499 -293 l3
-148 -181 0 -180 0 0 143 c0 79 3 147 7 151 4 3 84 5 177 4 l171 -3 3 -147z"/>
<path d="M801 1554 c-20 -26 -21 -39 -21 -294 l0 -268 31 -26 31 -26 278 0
c153 0 290 4 304 10 51 19 56 48 56 308 0 247 -6 294 -40 312 -11 6 -142 10
-319 10 l-300 0 -20 -26z m499 -294 l0 -150 -175 0 -175 0 0 150 0 150 175 0
175 0 0 -150z"/>
<path d="M1709 1561 l-24 -19 -3 -270 -3 -270 25 -28 24 -29 296 -3 297 -3 29
30 30 29 0 267 0 266 -25 24 -24 25 -299 0 c-280 0 -301 -1 -323 -19z m499
-298 l-3 -148 -175 0 -175 0 -3 148 -3 147 181 0 181 0 -3 -147z"/>
<path d="M2612 1557 c-21 -23 -22 -30 -22 -289 0 -147 3 -274 6 -283 16 -40
51 -45 339 -45 313 0 326 3 345 68 7 24 10 122 8 279 -3 240 -3 242 -27 267
l-24 26 -302 0 -302 0 -21 -23z m498 -297 l0 -150 -175 0 -175 0 0 150 0 150
175 0 175 0 0 -150z"/>
<path d="M3515 1555 l-25 -24 0 -265 0 -265 24 -28 24 -28 302 0 302 0 24 28
24 28 0 265 0 265 -25 24 -24 25 -301 0 -301 0 -24 -25z m503 -292 l-3 -148
-175 0 -175 0 -3 148 -3 147 181 0 181 0 -3 -147z"/>
</g>
</symbol>

<!-- Money -->
<symbol id='money'>
<g transform="translate(0.000000,512.000000) scale(0.100000,-0.100000)"
stroke="none">
<path d="M2370 5113 c-379 -36 -661 -116 -980 -278 -378 -193 -717 -497 -965
-865 -104 -156 -232 -419 -294 -605 -49 -150 -89 -321 -113 -490 -17 -118 -17
-512 0 -630 42 -295 120 -553 242 -800 137 -280 272 -468 494 -691 221 -220
412 -357 681 -489 188 -92 309 -137 500 -185 500 -126 1002 -102 1490 71 149
53 407 182 540 271 365 243 667 578 866 963 181 348 271 694 286 1090 15 426
-73 832 -263 1214 -124 250 -263 447 -458 648 -216 224 -428 378 -711 518
-296 146 -572 225 -900 255 -102 9 -333 11 -415 3z m395 -303 c785 -72 1480
-553 1825 -1264 106 -217 166 -409 206 -661 25 -154 25 -496 0 -650 -40 -252
-100 -444 -206 -661 -223 -458 -585 -820 -1045 -1045 -216 -105 -408 -165
-660 -205 -154 -25 -496 -25 -650 0 -433 70 -808 240 -1135 514 -498 417 -800
1067 -800 1722 0 655 301 1302 800 1723 464 390 1069 582 1665 527z"/>
<path d="M2020 3823 c-8 -3 -26 -15 -38 -27 -53 -48 -52 -31 -52 -661 l0 -585
-103 0 c-80 0 -110 -4 -137 -19 -107 -56 -107 -210 0 -263 27 -14 60 -18 138
-18 l102 0 0 -169 0 -169 -107 -3 c-91 -4 -114 -8 -144 -27 -93 -57 -91 -195
3 -252 28 -17 51 -20 141 -20 l107 0 0 -189 c0 -179 1 -190 23 -221 35 -52 68
-72 119 -72 56 0 99 22 130 64 22 31 23 43 26 226 l4 192 347 0 c345 0 348 0
382 23 92 61 90 181 -4 251 -27 20 -41 21 -378 24 l-349 3 0 169 0 169 398 4
c432 4 442 5 578 67 158 71 301 208 378 362 70 140 90 232 84 393 -4 107 -10
144 -32 210 -84 246 -261 424 -511 512 l-80 28 -505 2 c-278 1 -512 -1 -520
-4z m1009 -312 c156 -48 294 -196 330 -352 6 -24 11 -78 11 -120 0 -230 -163
-431 -388 -478 -33 -7 -186 -11 -402 -11 l-350 0 0 490 0 490 369 0 c334 0
375 -2 430 -19z"/>
</g>
</symbol>

<!-- Check list -->
<symbol id='check-list'>
<g transform="translate(0.000000,512.000000) scale(0.100000,-0.100000)"
stroke="none">
<path d="M578 5105 c-58 -21 -102 -60 -134 -117 l-29 -53 0 -2375 0 -2375 29
-53 c33 -59 76 -96 137 -117 63 -22 3895 -22 3958 0 61 21 104 58 137 117 l29
53 0 2375 0 2375 -29 53 c-33 59 -76 96 -137 117 -60 22 -3903 21 -3961 0z
m3941 -181 l21 -27 0 -2337 0 -2337 -21 -27 -20 -26 -1939 0 -1939 0 -20 26
-21 27 0 2337 0 2337 21 27 20 26 1939 0 1939 0 20 -26z"/>
<path d="M1046 4689 l-26 -31 0 -515 0 -515 29 -29 29 -29 566 0 565 0 28 24
28 24 0 527 0 527 -28 24 -28 24 -569 0 -568 0 -26 -31z m1054 -544 l0 -415
-455 0 -455 0 0 415 0 415 455 0 455 0 0 -415z"/>
<path d="M1754 4199 l-153 -152 -66 42 c-77 48 -115 52 -150 16 -25 -24 -31
-57 -18 -90 10 -29 211 -155 245 -155 25 0 59 28 210 173 178 170 208 206 208
247 0 34 -44 70 -86 70 -35 0 -48 -11 -190 -151z"/>
<path d="M2662 4387 c-30 -32 -29 -81 3 -112 l24 -25 680 0 679 0 26 31 c14
17 26 37 26 45 0 24 -28 71 -45 78 -9 3 -321 6 -694 6 l-678 0 -21 -23z"/>
<path d="M2662 3967 c-30 -32 -29 -81 3 -112 l24 -25 676 0 677 0 30 30 c25
26 29 36 24 63 -3 18 -16 40 -27 50 -20 16 -68 17 -703 17 l-683 0 -21 -23z"/>
<path d="M1084 3133 c-12 -2 -30 -13 -40 -25 -18 -19 -19 -50 -22 -533 -2
-331 1 -522 8 -539 21 -55 30 -56 615 -56 593 0 593 0 614 60 16 46 16 994 0
1040 -22 60 -20 60 -616 59 -296 -1 -548 -4 -559 -6z m1016 -573 l0 -410 -455
0 -455 0 0 410 0 410 455 0 455 0 0 -410z"/>
<path d="M1759 2614 l-157 -156 -44 29 c-101 70 -139 75 -178 26 -45 -58 -10
-108 138 -196 65 -39 86 -48 110 -43 20 5 86 65 215 195 207 207 213 217 158
272 -54 53 -67 46 -242 -127z"/>
<path d="M2685 2818 c-67 -36 -56 -135 18 -153 12 -3 320 -4 684 -3 648 3 663
3 682 23 12 11 23 34 27 52 5 27 1 37 -24 63 l-30 30 -669 0 c-464 -1 -674 -4
-688 -12z"/>
<path d="M2683 2400 c-48 -20 -58 -92 -17 -131 l26 -24 679 0 c666 0 679 0
698 20 11 11 23 34 27 52 5 27 1 37 -24 63 l-30 30 -669 -1 c-367 0 -678 -4
-690 -9z"/>
<path d="M1049 1521 l-29 -29 0 -515 0 -515 26 -31 26 -31 568 0 569 0 28 24
28 24 0 527 0 527 -28 24 -28 24 -565 0 -566 0 -29 -29z m1051 -546 l0 -415
-455 0 -455 0 0 415 0 415 455 0 455 0 0 -415z"/>
<path d="M1756 1030 c-84 -82 -155 -150 -159 -150 -3 0 -34 18 -68 40 -36 23
-74 40 -91 40 -57 0 -96 -68 -68 -120 5 -10 55 -48 110 -84 72 -47 110 -66
133 -66 28 0 55 23 210 171 175 169 207 207 207 249 0 34 -44 70 -86 70 -34 0
-48 -12 -188 -150z"/>
<path d="M2661 1214 c-28 -36 -27 -79 4 -109 l24 -25 679 0 c667 0 679 0 700
20 12 11 24 31 28 44 7 28 -18 81 -41 90 -9 3 -322 6 -695 6 l-679 0 -20 -26z"/>
<path d="M2662 797 c-30 -32 -29 -81 3 -112 l24 -25 680 0 679 0 26 31 c14 17
26 37 26 45 0 24 -28 71 -45 78 -9 3 -321 6 -694 6 l-678 0 -21 -23z"/>
</g>
</symbol>

<!-- Delivery -->
<symbol id='delivery'>
<g transform="translate(0.000000,512.000000) scale(0.100000,-0.100000)"
stroke="none">
<path d="M1560 4575 c-36 -8 -107 -35 -159 -61 -77 -38 -109 -62 -175 -128
-90 -90 -135 -159 -174 -268 -24 -66 -26 -87 -27 -216 l0 -142 -448 0 -448 0
-24 -25 -25 -24 0 -1306 c0 -827 4 -1313 10 -1324 14 -28 36 -34 139 -40 l94
-6 17 -60 c61 -225 259 -389 494 -410 91 -8 195 13 294 60 137 65 256 214 292
363 l12 52 1125 -2 1126 -3 14 -55 c49 -196 208 -354 408 -405 288 -73 596
109 672 398 l18 67 96 0 c80 0 101 3 120 19 l24 19 3 470 3 470 -25 28 c-21
25 -32 29 -92 32 l-69 4 -149 436 c-82 241 -155 451 -163 468 -8 17 -25 36
-39 43 -17 8 -157 11 -464 11 l-440 0 0 334 c0 314 -1 335 -19 357 l-19 24
-586 3 -586 2 7 43 c13 68 7 197 -12 267 -60 229 -234 414 -460 486 -101 33
-266 41 -365 19z m320 -174 c212 -72 360 -273 363 -495 2 -159 -127 -431 -406
-853 -67 -101 -124 -183 -127 -183 -8 0 -236 346 -303 460 -84 144 -171 325
-203 420 -95 286 79 588 384 665 78 20 209 13 292 -14z m-728 -933 c105 -209
268 -473 450 -725 90 -126 126 -126 216 0 182 252 345 516 450 725 l66 132
553 0 553 0 0 -1200 0 -1200 -1003 0 -1002 0 -13 52 c-33 142 -145 290 -268
354 -104 55 -159 69 -274 69 -115 0 -170 -14 -274 -69 -123 -64 -235 -212
-268 -353 l-13 -53 -42 0 -43 0 0 1200 0 1200 423 0 423 0 66 -132z m3325
-773 c33 -99 95 -278 136 -397 l75 -218 -544 0 -544 0 0 400 0 400 408 -2 407
-3 62 -180z m403 -1135 l0 -360 -43 0 -42 0 -13 53 c-43 186 -186 337 -382
403 -76 26 -244 26 -320 0 -196 -66 -339 -217 -382 -403 l-13 -53 -42 0 -43 0
0 360 0 360 640 0 640 0 0 -360z m-3836 -78 c91 -42 149 -100 194 -190 35 -72
37 -81 37 -172 0 -91 -2 -100 -37 -172 -45 -91 -103 -147 -196 -191 -61 -29
-76 -32 -162 -32 -86 0 -101 3 -162 32 -93 44 -151 100 -196 191 -35 72 -37
81 -37 171 0 87 3 102 32 163 40 85 97 147 172 186 78 42 122 52 213 48 61 -3
92 -11 142 -34z m3360 0 c91 -42 149 -100 194 -190 35 -72 37 -81 37 -172 0
-91 -2 -100 -37 -172 -45 -91 -103 -147 -196 -191 -61 -29 -76 -32 -162 -32
-86 0 -101 3 -162 32 -93 44 -151 100 -196 191 -35 72 -37 81 -37 171 0 87 3
102 32 163 40 85 97 147 172 186 78 42 122 52 213 48 61 -3 92 -11 142 -34z"/>
<path d="M1603 4256 c-96 -31 -188 -119 -223 -214 -29 -78 -26 -205 8 -274
109 -221 393 -274 566 -105 73 73 99 131 104 237 5 110 -19 177 -89 255 -70
76 -139 108 -243 112 -50 2 -97 -2 -123 -11z m216 -179 c22 -15 50 -45 61 -67
23 -46 26 -125 6 -173 -24 -59 -111 -117 -176 -117 -65 0 -152 58 -176 117
-24 57 -18 133 15 184 57 91 179 116 270 56z"/>
<path d="M1625 2535 c-23 -22 -25 -32 -25 -120 l0 -95 -415 0 -416 0 -24 -25
c-24 -23 -25 -28 -25 -175 0 -147 1 -152 25 -175 l24 -25 991 0 991 0 24 25
c16 15 25 36 25 55 0 19 -9 40 -25 55 l-24 25 -936 0 -935 0 0 40 0 40 415 0
416 0 24 25 c24 23 25 28 25 175 0 147 -1 152 -25 175 -15 16 -36 25 -55 25
-19 0 -40 -9 -55 -25z"/>
<path d="M2905 2065 c-16 -15 -25 -36 -25 -55 0 -19 9 -40 25 -55 21 -22 33
-25 95 -25 62 0 74 3 95 25 16 15 25 36 25 55 0 19 -9 40 -25 55 -21 22 -33
25 -95 25 -62 0 -74 -3 -95 -25z"/>
<path d="M2265 1415 c-16 -15 -25 -36 -25 -55 0 -19 9 -40 25 -55 l24 -25 351
0 351 0 24 25 c16 15 25 36 25 55 0 19 -9 40 -25 55 l-24 25 -351 0 -351 0
-24 -25z"/>
<path d="M3145 1415 c-16 -15 -25 -36 -25 -55 0 -19 9 -40 25 -55 21 -22 33
-25 95 -25 62 0 74 3 95 25 16 15 25 36 25 55 0 19 -9 40 -25 55 -21 22 -33
25 -95 25 -62 0 -74 -3 -95 -25z"/>
<path d="M800 1347 c-49 -16 -133 -102 -148 -153 -28 -94 -8 -169 63 -239 101
-102 229 -102 330 0 98 97 101 222 8 325 -65 72 -158 97 -253 67z m135 -172
c16 -15 25 -36 25 -55 0 -19 -9 -40 -25 -55 -15 -16 -36 -25 -55 -25 -19 0
-40 9 -55 25 -16 15 -25 36 -25 55 0 19 9 40 25 55 15 16 36 25 55 25 19 0 40
-9 55 -25z"/>
<path d="M4160 1347 c-49 -16 -133 -102 -148 -153 -28 -94 -8 -169 63 -239
101 -102 229 -102 330 0 98 97 101 222 8 325 -65 72 -158 97 -253 67z m135
-172 c50 -49 15 -135 -55 -135 -41 0 -80 39 -80 80 0 41 39 80 80 80 19 0 40
-9 55 -25z"/>
</g>
</symbol>
</svg>




